<svg xmlns="http://www.w3.org/2000/svg" version="1.1" id="Camada_1" x="0px" y="0px" viewBox="0 0 960 560" xml:space="preserve"><style type="text/css">
	.st0{font-family:'MyanmarText-Bold';}
	.st1{font-size:83,0332px;}
</style><path d="M128 8 324 2c-21 5 0-38 9-17 4-38 9-38 9 0-21 5 17 4-38 9 38 9-38 9 7 8-18 3 25 6-31 1 46 6-31 1 26 7 0 48 5 20 7 50 5 46 9l3 9 0 2c17 2 0 31 1 13 9 31 1 31 1 0 17 2-13 9 31 1-31 1 31 1H128 8M229 8 277 6h-15 5v-7 8c0-21 5-17 4-38 9-38 9-38 9 -19 4 0-35 4 14 1-38 4 32 6 -2 6 0 9-5 4-1 5-8 2-1 5 -12 9 0-23 3 10 4-23 3 23 3 0 12 9 10 4 23 3 23 3 23 3h101c8 6 0 15 5-7 15 5-15 5S238 4 277 6 229 8 277 6zM161 254 7v45 9l36 1-23L161 254 7z"/><text transform="matrix(1 0 0 1 281,5034 307,7246)" class="st0 st1">WeatherMusic</text></svg>